<?xml version="1.0" encoding="iso-8859-1"?>
<!-- Generator: Adobe Illustrator 19.0.0, SVG Export Plug-In . SVG Version: 6.00 Build 0)  -->
<svg version="1.1" id="Layer_1" xmlns="http://www.w3.org/2000/svg" xmlns:xlink="http://www.w3.org/1999/xlink" x="0px" y="0px"
	 viewBox="0 0 512 512" style="enable-background:new 0 0 512 512;" xml:space="preserve">
<g>
	<g>
		<path d="M352.849,170.709c-14.227-14.225-37.374-14.225-51.6,0l-172.641,172.64l-11.559-11.56l118.716-118.715
			c3.191-3.191,3.191-8.365,0-11.555c-3.192-3.191-8.365-3.191-11.556,0L48.163,377.562c-9.977,9.978-15.473,23.246-15.473,37.358
			s5.495,27.379,15.474,37.359c9.979,9.979,23.247,15.475,37.359,15.475c14.112-0.001,27.379-5.496,37.358-15.475L352.848,222.31
			c6.883-6.883,10.675-16.046,10.676-25.801C363.524,186.755,359.733,177.592,352.849,170.709z M341.292,210.754L111.326,440.723
			c-6.892,6.892-16.057,10.688-25.804,10.689c-9.745,0-18.909-3.796-25.802-10.689c-6.893-6.893-10.689-16.055-10.689-25.803
			s3.795-18.91,10.688-25.803l45.774-45.773l17.337,17.338c1.533,1.533,3.61,2.394,5.779,2.394s4.245-0.861,5.779-2.394
			l178.418-178.418c7.854-7.854,20.634-7.854,28.488,0c3.797,3.797,5.887,8.855,5.887,14.245
			C347.18,201.898,345.089,206.958,341.292,210.754z"/>
	</g>
</g>
<g>
	<g>
		<path d="M482.212,41.346c-39.719-39.719-104.343-39.719-144.064,0L25.049,354.447C8.894,370.599-0.001,392.077,0,414.92
			c0,22.845,8.897,44.322,25.049,60.474c16.154,16.153,37.629,25.049,60.473,25.049c22.845,0,44.322-8.897,60.474-25.049
			l45.774-45.774l17.338,17.338c3.192,3.191,8.365,3.191,11.556,0l261.549-261.549C521.929,145.691,521.929,81.065,482.212,41.346z
			 M470.656,173.854l-255.771,255.77l-11.56-11.56l255.772-255.771c26.972-26.972,26.972-70.86,0-97.832
			c-26.973-26.973-70.86-26.973-97.833,0l-83.131,83.131c-0.019,0.019-30.814,30.814-30.814,30.814
			c-3.191,3.191-3.191,8.365,0,11.555c3.192,3.191,8.365,3.191,11.556,0l30.814-30.813c20.6-20.601,54.12-20.601,74.72,0
			c20.591,20.591,20.602,54.086,0.032,74.69L134.439,463.838c-13.065,13.067-30.437,20.263-48.917,20.263
			c-18.478,0-35.85-7.195-48.917-20.262c-13.067-13.066-20.263-30.44-20.263-48.919c-0.001-18.478,7.195-35.851,20.263-48.918
			l313.099-313.1c16.675-16.675,38.572-25.011,60.477-25.011c21.899,0,43.804,8.339,60.475,25.01
			C504.002,86.248,504.002,140.507,470.656,173.854z M375.965,147.593c-13.486-13.486-31.202-20.229-48.916-20.229
			c-1.941,0-3.882,0.082-5.819,0.243l51.59-51.589c20.6-20.601,54.12-20.601,74.72,0c20.601,20.601,20.601,54.12,0,74.721
			l-51.589,51.589C397.591,182.727,390.929,162.558,375.965,147.593z"/>
	</g>
</g>
<g>
</g>
<g>
</g>
<g>
</g>
<g>
</g>
<g>
</g>
<g>
</g>
<g>
</g>
<g>
</g>
<g>
</g>
<g>
</g>
<g>
</g>
<g>
</g>
<g>
</g>
<g>
</g>
<g>
</g>
</svg>
